<svg xmlns="http://www.w3.org/2000/svg" width="256" height="256" viewBox="0 0 256 256" fill="none" color="#E0F2FF">
  <path d="M64 145C51 156 40 168 37 181C33 193 42 201 60 205C100 212 156 189 197 158C219 141 227 113 216 90C222 111 214 134 193 151C154 181 103 202 64 196C50 194 44 189 47 180C50 169 57 156 64 145Z" fill="currentColor"/>
  <path d="M113 68C114.4 95 119.2 115.2 158 125C119.2 134.8 114.4 152.3 113 178C111.6 152.3 106.8 134.8 68 125C106.8 115.2 111.6 95 113 68Z" fill="currentColor"/>
  <path d="M174 62C175.4 72.2 178.6 78.6 191 82C178.6 85.4 175.4 91.8 174 102C172.6 91.8 169.4 85.4 157 82C169.4 78.6 172.6 72.2 174 62Z" fill="currentColor"/>
</svg>
